<svg xmlns="http://www.w3.org/2000/svg">
	<defs>
		<symbol id="icon-plus-thin" viewBox="0 0 16 16">
			<path fill-rule="evenodd" clip-rule="evenodd" d="M7.583 7.167v-5a.833.833 0 0 1 1.667 0v5h5a.833.833 0 0 1 0 1.666h-5v5a.833.833 0 1 1-1.667 0v-5H1.75a.833.833 0 1 1 0-1.666h5.833Z"/>
		</symbol>
		<symbol id="icon-plus" viewBox="0 0 16 16">
			<path d="M13.754 6.957H9.006V2.293c0-.577-.447-1.043-.997-1.043-.549 0-.996.466-.996 1.043v4.664H2.246c-.55 0-.996.466-.996 1.043s.447 1.043.996 1.043h4.758v4.655c0 .577.447 1.043.996 1.043.55 0 .996-.466.996-1.043V9.043h4.748c.55 0 .997-.466.997-1.043s-.447-1.043-.996-1.043h.009Z"/>
		</symbol>
		<symbol id="icon-arrow-thin" viewBox="0 0 16 16">
			<path fill-rule="evenodd" clip-rule="evenodd" d="M.5 8c0-.46.373-.833.833-.833h13.334a.833.833 0 0 1 0 1.666H1.333A.833.833 0 0 1 .5 8Z"/><path fill-rule="evenodd" clip-rule="evenodd" d="M8.244 1.577a.833.833 0 0 1 1.179 0l5.833 5.834a.833.833 0 0 1 0 1.178l-5.833 5.834a.833.833 0 0 1-1.179-1.179L13.488 8 8.244 2.756a.833.833 0 0 1 0-1.179Z"/>
		</symbol>
		<symbol id="icon-arrow" viewBox="0 0 16 16">
			<path d="M15.486 8.4c.046-.111.065-.232.074-.344 0-.019.01-.037.01-.056 0-.019-.01-.037-.01-.056a.882.882 0 0 0-.075-.344 1.126 1.126 0 0 0-.186-.28c-.018-.018-.028-.046-.046-.065L9.564 1.548c-.4-.4-1.099-.4-1.499 0-.4.4-.41 1.08 0 1.499l3.892 3.892H1.492a1.06 1.06 0 1 0 0 2.122h10.465l-3.892 3.892c-.41.41-.41 1.08 0 1.5.205.204.475.306.745.306s.54-.102.745-.307l5.698-5.698s.028-.046.046-.065a.977.977 0 0 0 .187-.28V8.4Z"/>
		</symbol>
		<symbol id="icon-arrow-down" viewBox="0 0 17 16">
			<path fill-rule="evenodd" clip-rule="evenodd" d="M8.50003 0.5C8.96027 0.5 9.33337 0.873096 9.33337 1.33333V14.6667C9.33337 15.1269 8.96027 15.5 8.50003 15.5C8.0398 15.5 7.6667 15.1269 7.6667 14.6667L7.6667 1.33333C7.6667 0.873096 8.0398 0.5 8.50003 0.5Z" />
			<path fill-rule="evenodd" clip-rule="evenodd" d="M14.9226 8.24408C15.248 8.56951 15.248 9.09715 14.9226 9.42259L9.08927 15.2559C8.76383 15.5814 8.2362 15.5814 7.91076 15.2559L2.07743 9.42259C1.75199 9.09715 1.75199 8.56951 2.07743 8.24408C2.40286 7.91864 2.9305 7.91864 3.25594 8.24408L8.50002 13.4882L13.7441 8.24408C14.0695 7.91864 14.5972 7.91864 14.9226 8.24408Z" />
		</symbol>
		<symbol id="icon-arrow-up-right" viewBox="0 0 17 16">
			<path d="M14.076 2.99a1.145 1.145 0 0 0-.19-.296c-.014-.013-.02-.033-.034-.046-.013-.013-.033-.02-.046-.033a.88.88 0 0 0-.296-.191 1.125 1.125 0 0 0-.33-.066c-.026 0-.052-.013-.078-.013l-8.058-.013c-.566 0-1.06.494-1.06 1.06 0 .566.474 1.053 1.06 1.06h5.503l-7.4 7.4a1.06 1.06 0 1 0 1.502 1.5l7.4-7.4v5.504c0 .58.473 1.054 1.06 1.06.289 0 .552-.118.743-.31.191-.19.31-.453.31-.743V3.405s-.014-.053-.014-.08a.974.974 0 0 0-.065-.328l-.007-.007Z"/>
			
		</symbol>
		<symbol id="icon-linkedin" viewBox="0 0 14 14">
			<path d="M3.178 13.65V4.677h-3v8.973h3Zm-1.5-10.2c1.046 0 1.698-.688 1.698-1.55-.02-.88-.651-1.55-1.678-1.55S0 1.02 0 1.9c0 .862.651 1.55 1.658 1.55h.02Zm3.161 10.2H7.84V8.64c0-.268.02-.536.099-.728.217-.536.71-1.09 1.54-1.09 1.086 0 1.52.822 1.52 2.028v4.801H14V8.505c0-2.757-1.48-4.04-3.455-4.04-1.619 0-2.33.9-2.725 1.513h.02V4.676h-3c.039.842 0 8.974 0 8.974Z"/>
		</symbol>
		<symbol id="icon-mail" viewBox="0 0 14 12">
			<path d="M12.6 11.6H1.4A1.4 1.4 0 0 1 0 10.2V1.739A1.4 1.4 0 0 1 1.4.399h11.2A1.4 1.4 0 0 1 14 1.8v8.4a1.4 1.4 0 0 1-1.4 1.4ZM1.4 3.108V10.2h11.2V3.108L7 6.84 1.4 3.108ZM1.96 1.8 7 5.16l5.04-3.36H1.96Z"/>
		</symbol>
		<symbol id="icon-twitter" viewBox="0 0 20 18">
			<path d="M17.944 4.926c.013.178.013.356.013.533 0 5.42-4.124 11.663-11.663 11.663-2.322 0-4.48-.673-6.294-1.84.33.038.647.05.99.05a8.21 8.21 0 0 0 5.089-1.75 4.106 4.106 0 0 1-3.833-2.843c.254.038.508.063.774.063.368 0 .736-.05 1.079-.14A4.1 4.1 0 0 1 .812 6.64v-.051c.546.304 1.18.495 1.853.52A4.096 4.096 0 0 1 .838 3.695c0-.761.203-1.459.558-2.068a11.651 11.651 0 0 0 8.452 4.29 4.627 4.627 0 0 1-.102-.94 4.097 4.097 0 0 1 4.1-4.099c1.18 0 2.245.495 2.994 1.295a8.07 8.07 0 0 0 2.602-.99 4.088 4.088 0 0 1-1.802 2.259A8.217 8.217 0 0 0 20 2.807a8.811 8.811 0 0 1-2.056 2.12Z" />
		</symbol>
		<symbol id="icon-facebook" viewBox="0 0 12 20">
			<path d="m10.654 11.25.556-3.62H7.737V5.282c0-.99.485-1.956 2.04-1.956h1.58V.245S9.922 0 8.553 0c-2.86 0-4.73 1.734-4.73 4.872V7.63H.644v3.62h3.18V20h3.913v-8.75h2.917Z" />
		</symbol>
		<symbol id="icon-phone" viewBox="0 0 16 16">
			<path d="M3.218 6.924a13.465 13.465 0 0 0 5.858 5.858l1.955-1.955c.24-.24.596-.32.907-.214.995.33 2.07.507 3.173.507.489 0 .889.4.889.889v3.102c0 .489-.4.889-.889.889C6.764 16 0 9.236 0 .889 0 .4.4 0 .889 0H4c.489 0 .889.4.889.889 0 1.111.178 2.178.507 3.173a.892.892 0 0 1-.223.907L3.218 6.924Z" />
		</symbol>
		<symbol id="icon-home" viewBox="0 0 16 17">
			<g>
				<path d="M6.81216 1.19839C7.1448 0.918868 7.56536 0.765625 7.99985 0.765625C8.43434 0.765625 8.85491 0.918868 9.18754 1.19839L14.726 5.85562C14.9322 6.02886 15.0979 6.2451 15.2117 6.48918C15.3254 6.73325 15.3844 6.99926 15.3845 7.26854V15.0039C15.3845 15.3303 15.2548 15.6434 15.024 15.8742C14.7932 16.105 14.4801 16.2347 14.1537 16.2347H10.7691C10.4427 16.2347 10.1296 16.105 9.8988 15.8742C9.66798 15.6434 9.53831 15.3303 9.53831 15.0039V10.6962H6.46139V15.0039C6.46139 15.3303 6.33172 15.6434 6.1009 15.8742C5.87009 16.105 5.55704 16.2347 5.23062 16.2347H1.846C1.51958 16.2347 1.20653 16.105 0.975718 15.8742C0.744904 15.6434 0.615234 15.3303 0.615234 15.0039V7.26793C0.615302 6.99865 0.674278 6.73264 0.788025 6.48856C0.901772 6.24448 1.06754 6.02824 1.2737 5.855L6.81216 1.19777V1.19839Z"/>
			</g>
		</symbol>
		<symbol id="icon-branding" viewBox="0 0 48 48">
			<g><path d="M33.977 35.94a.801.801 0 0 0-.848-.864c-5.304 0-8.228-2.4-8.228-6.8a.864.864 0 0 0-1.724 0c0 2.56.968 8.512 9.952 8.512a.8.8 0 0 0 .848-.848Z"/><path d="M34.728 32.184c1.46-1.248 2-3.272 1.504-5.552-1.052-4.736-4.22-8.144-8.692-9.348a13.011 13.011 0 0 0-12.98 3.828c-2 2.152-4.8 6.876-1.472 14.284a.83.83 0 0 0 .504.472.9.9 0 0 0 .632-.056.916.916 0 0 0 .456-.436.8.8 0 0 0-.02-.688c-2.94-6.508-.532-10.568 1.168-12.4a11.292 11.292 0 0 1 11.256-3.324c3.84 1.036 6.564 3.968 7.468 8.052.364 1.636 0 3.064-1.016 3.924a2.671 2.671 0 0 1-2.732.48c-1.224-.484-2.048-1.828-2.256-3.692-.304-2.724-2.452-3.92-4.488-3.92h-.132a4.8 4.8 0 0 0-4.776 4.66 10.548 10.548 0 0 0 2.18 7.276c1.564 2 3.912 3.464 6.8 4.232a.8.8 0 0 0 .8-.188.972.972 0 0 0 .244-.912.771.771 0 0 0-.6-.564c-2.516-.676-4.548-1.928-5.88-3.624a8.86 8.86 0 0 1-1.812-6.12 3.124 3.124 0 0 1 3.096-3.048 2.692 2.692 0 0 1 2.868 2.4c.4 3.444 2.216 4.656 3.272 5.072a4.536 4.536 0 0 0 4.608-.808ZM24.205 8c-3.56 0-7.168 1.2-9.552 3.6a.864.864 0 0 0 1.22 1.22c3.972-3.968 12.216-4.124 16.04-.296a.864.864 0 0 0 1.2-1.224C30.945 9.088 27.605 8 24.205 8Z"/><path d="M37.256 21.328a.801.801 0 0 0 .132-1.2c-3.9-4.8-8.5-7.412-13.296-7.496-4.796-.084-9.416 2.324-13.46 6.972a.8.8 0 0 0-.184.8.971.971 0 0 0 .716.62.8.8 0 0 0 .768-.288c3.636-4.184 7.756-6.4 11.924-6.4h.212c4.272.076 8.4 2.448 12 6.856a.799.799 0 0 0 1.188.136Z"/><path d="M20.337 39.376a.861.861 0 0 0 1.144-1.288 12.282 12.282 0 0 1-3.028-4.192c-1.344-3.032-1.652-7.268.684-9.888 1.852-2.08 4.516-2.8 6.948-1.872 2.704 1.028 4.4 3.7 4.4 6.968a.864.864 0 0 0 1.724 0 10.398 10.398 0 0 0-.868-4.18 7.923 7.923 0 0 0-6.076-4.76 7.8 7.8 0 0 0-1.252-.1 8.243 8.243 0 0 0-6.152 2.8c-1.9 2.136-3.296 6.484-.976 11.728.8 1.82 1.976 3.451 3.452 4.784Z"/></g>
		</symbol>
		<symbol id="icon-ux-ui" viewBox="0 0 48 48">
			<g><path d="M24.919 10.444a.711.711 0 1 0 0 1.423.711.711 0 0 0 0-1.423ZM22.47 10.444a.712.712 0 1 0 0 1.423.712.712 0 0 0 0-1.423ZM23.694 36.112a.711.711 0 1 0 0 1.422.711.711 0 0 0 0-1.422ZM11.474 19.204a.712.712 0 1 0-.017-1.425.712.712 0 0 0 .017 1.425ZM13.91 19.204a.711.711 0 1 0 0-1.423.711.711 0 0 0 0 1.423ZM16.358 19.204a.712.712 0 1 0 0-1.423.712.712 0 0 0 0 1.423ZM18.803 19.204a.712.712 0 1 0 0-1.423.712.712 0 0 0 0 1.423ZM21.251 19.204a.711.711 0 1 0 0-1.422.711.711 0 0 0 0 1.422ZM30.423 30.212a.712.712 0 1 0 0-1.424.712.712 0 0 0 0 1.424ZM32.87 30.212h3.669a.71.71 0 0 0 .706-.995.712.712 0 0 0-.706-.425H32.87a.712.712 0 1 0 0 1.42ZM30.423 32.66h6.116a.712.712 0 1 0 0-1.424h-6.116a.712.712 0 1 0 0 1.424ZM30.423 35.104h6.116a.712.712 0 1 0 0-1.42h-6.116a.713.713 0 0 0-.538 1.232.713.713 0 0 0 .538.188Z"/><path d="M38.983 26.344h-4.8V8.708A.712.712 0 0 0 33.47 8H13.91a.712.712 0 0 0-.712.708v6.628h-4.18a.712.712 0 0 0-.712.712v4.892a.712.712 0 0 0 .712.712h4.18v17.636a.712.712 0 0 0 .712.712h19.564a.712.712 0 0 0 .712-.712v-1.736h4.8a.712.712 0 0 0 .712-.712v-9.784a.713.713 0 0 0-.716-.712Zm-.708 1.424v8.344h-9.6v-8.36l9.6.016ZM14.623 12.912V9.44H32.77v3.472H14.623Zm12.644 14.164v6.628H14.623V21.652h9.072a.712.712 0 0 0 .712-.712v-4.892a.712.712 0 0 0-.712-.712h-9.072v-1.024H32.77v12.032h-4.8a.712.712 0 0 0-.704.712v.02Zm.708 10.496h4.8v1.024H14.623v-3.472h12.644v1.736a.712.712 0 0 0 .708.692v.02Zm-4.992-20.8v3.468H9.73v-3.468h13.252Z"/><path d="M23.695 23.288h-2.444a.712.712 0 0 0-.712.712v2.444a.712.712 0 0 0 .712.712h2.444a.712.712 0 0 0 .712-.712V24a.712.712 0 0 0-.712-.712Zm-.712 1.42v1.024H21.96v-1.024h1.024ZM16.358 27.156h2.444a.712.712 0 0 0 .713-.712V24a.712.712 0 0 0-.713-.712h-2.444a.712.712 0 0 0-.712.712v2.444a.712.712 0 0 0 .712.712Zm.709-1.424v-1.024h1.023v1.024h-1.023ZM31.747 24.608v-2.444a3.153 3.153 0 0 0-1.296-2.548 2.549 2.549 0 1 0-3.724 0 3.15 3.15 0 0 0-1.296 2.548v2.444a.712.712 0 0 0 .712.712h4.892a.712.712 0 0 0 .712-.712Zm-3.16-5.6a1.124 1.124 0 1 1 0-2.248 1.124 1.124 0 0 1 0 2.248Zm-1.732 3.156a1.736 1.736 0 1 1 3.468 0V23.9h-3.468v-1.736ZM16.358 29.6a.712.712 0 1 0 0-1.424.712.712 0 0 0 0 1.424ZM23.694 28.18h-4.892a.71.71 0 0 0-.706.995.711.711 0 0 0 .706.425h4.892a.712.712 0 1 0 0-1.42ZM23.695 30.624h-7.337a.712.712 0 0 0 0 1.424h7.337a.712.712 0 0 0 0-1.424Z"/></g>
		</symbol>
		<symbol id="icon-packaging" viewBox="0 0 48 48">
			<g><path d="M22.887 24.568a3.96 3.96 0 0 0-3.864-3.956v-1.356a.8.8 0 0 0 .704-.8v-1.804a1.692 1.692 0 0 0-1.672-1.708h-4.032a1.687 1.687 0 0 0-1.668 1.708v1.804a.8.8 0 0 0 .7.8v1.356a3.96 3.96 0 0 0-3.86 3.956v13.084A2.348 2.348 0 0 0 11.54 40h9a2.352 2.352 0 0 0 2.348-2.348V24.568Zm-8.944-7.904c0-.068.044-.116.08-.116h4.032c.036 0 .08.048.08.116v1.008h-4.192v-1.008Zm-3.16 7.904a2.368 2.368 0 0 1 2.368-2.364h.7a.8.8 0 0 0 .8-.8V19.26h2.8v2.144a.8.8 0 0 0 .8.8h.704a2.368 2.368 0 0 1 2.364 2.364v3.18h-2.14a3.564 3.564 0 0 0-6.232 0h-2.14l-.024-3.18Zm0 4.772h2.652a.8.8 0 0 0 .752-.528 1.968 1.968 0 0 1 3.708 0 .801.801 0 0 0 .748.528h2.668v4.912H10.783V29.34Zm10.528 6.504v1.808a.756.756 0 0 1-.756.756h-9a.756.756 0 0 1-.756-.756v-1.808h10.512ZM36.111 15.432l-1.395-.436v-2.644a1.358 1.358 0 0 0 .435-.992v-2a1.356 1.356 0 0 0-1.356-1.356h-3.932a1.356 1.356 0 0 0-1.355 1.356v2a1.355 1.355 0 0 0 .436.992v2.644l-1.396.436c-1.408.44-2.692 2.268-2.692 3.828V37.064a2.936 2.936 0 0 0 2.931 2.932h8.084a2.936 2.936 0 0 0 2.932-2.932V19.26c0-1.56-1.283-3.388-2.691-3.828ZM26.448 32.58h1.148c1.003 1.652 2.572 2.628 4.232 2.628 1.66 0 3.232-.976 4.235-2.628h1.148v4.488a1.34 1.34 0 0 1-1.34 1.336h-8.084a1.34 1.34 0 0 1-1.34-1.34V32.58Zm4.087-17v-2.864h2.588v2.864a.8.8 0 0 0 .556.76l1.956.612c.753.236 1.577 1.444 1.577 2.308v5.068h-1.149c-1.004-1.648-2.572-2.624-4.236-2.624-1.664 0-3.228.976-4.232 2.624h-1.147V19.26c0-.864.823-2.072 1.575-2.308l1.957-.612a.8.8 0 0 0 .555-.76Zm4.376 15.84c-.708 1.376-1.852 2.196-3.064 2.196s-2.352-.8-3.06-2.196a.8.8 0 0 0-.707-.432h-1.6V25.92h1.6a.8.8 0 0 0 .708-.432c.707-1.372 1.852-2.196 3.06-2.196s2.355.824 3.063 2.196a.799.799 0 0 0 .709.432h1.6v5.068h-1.6a.801.801 0 0 0-.709.432Zm-4.8-21.816h3.46v1.536h-3.46V9.604Z"/></g>
		</symbol>
		<symbol id="icon-web-design" viewBox="0 0 48 48">
			<g><path d="M29.927 16.712a.596.596 0 0 0-.831-.096l-2.593 2.024a.603.603 0 0 0-.228.466.605.605 0 0 0 .228.466l2.593 2a.596.596 0 0 0 .831-.092.604.604 0 0 0-.091-.856l-1.973-1.54 1.973-1.54a.596.596 0 0 0 .091-.832ZM38.256 18.62l-2.588-2.024a.6.6 0 1 0-.74.948l1.972 1.54-1.972 1.54a.602.602 0 0 0 .74.948l2.588-2a.585.585 0 0 0 .172-.724.615.615 0 0 0-.172-.228ZM33.595 13.72a.603.603 0 0 0-.724.46L30.7 23.72a.614.614 0 1 0 1.2.268l2.168-9.536a.606.606 0 0 0-.472-.732ZM22.752 19.612H8.888a.756.756 0 0 0-.756.756v5.144a.756.756 0 0 0 .756.756h13.864a.756.756 0 0 0 .756-.756v-5.144a.756.756 0 0 0-.756-.756Zm-.756 5.128H9.644v-3.6h12.352v3.6ZM22.752 11.112H8.888a.756.756 0 0 0-.756.756v6.044a.756.756 0 0 0 .756.756h13.864a.756.756 0 0 0 .756-.756v-6.036a.755.755 0 0 0-.756-.764Zm-.756 6.052H9.644v-4.532h12.352v4.532Z"/><path d="M40.764 8H7.256a2.24 2.24 0 0 0-2.248 2.228v22.508a2.248 2.248 0 0 0 2.248 2.244h12.196a10.038 10.038 0 0 1-2.82 3.312h-1.408a.856.856 0 1 0 0 1.708h17.564a.856.856 0 1 0 0-1.708h-1.42a10.249 10.249 0 0 1-2.8-3.312h12.204A2.24 2.24 0 0 0 43 32.736V10.228A2.23 2.23 0 0 0 40.764 8Zm-21.6 30.288a9.199 9.199 0 0 0 2.116-3.308h5.416a9.291 9.291 0 0 0 2.12 3.308h-9.652Zm22.1-8.916v3.364a.523.523 0 0 1-.52.536H7.256a.533.533 0 0 1-.536-.536v-3.364h34.544Zm0-19.144v17.436H6.72V10.228a.528.528 0 0 1 .536-.516h33.508a.512.512 0 0 1 .52.516h-.02Z"/><path d="M9.892 31.848a.724.724 0 0 0 0-1.056.752.752 0 0 0-1.056 0 .728.728 0 0 0 0 1.056.736.736 0 0 0 1.056 0ZM12.824 31.848a.749.749 0 1 0-1.056 0 .728.728 0 0 0 1.056 0ZM15.768 31.848a.736.736 0 0 0 0-1.056.8.8 0 0 0-1.076 0 .76.76 0 0 0 .246 1.225.75.75 0 0 0 .83-.169Z"/></g>
		</symbol>
		<symbol id="icon-marketing" viewBox="0 0 48 48">
			<g><path d="M13.195 32a1 1 0 0 0-.996 1v2.4a1 1 0 0 0 2 0V33a.996.996 0 0 0-1.004-1ZM17.796 30.612a1 1 0 0 0-2 0v4.8a1 1 0 0 0 2 0v-4.8ZM21.395 28.212a1 1 0 0 0-2 0v7.2a1 1 0 0 0 2 0v-7.2ZM23.996 30.8a1 1 0 0 0-.996 1v3.6a1 1 0 0 0 2 0v-3.6a1 1 0 0 0-1.004-1ZM27.6 27.2a1 1 0 0 0-1 1v7.2a1 1 0 0 0 2 0v-7.188a1.001 1.001 0 0 0-1-1.012ZM31.2 24.8a1 1 0 0 0-1 1v9.6a1 1 0 0 0 2 0v-9.588a1 1 0 0 0-1-1.012Z"/><path d="M9.596 8a.992.992 0 0 0-.996.996v30a.996.996 0 0 0 .996 1h25.2a1 1 0 0 0 .996-1v-21.8h2.604a.994.994 0 0 0 .996-1v-5.4a2.8 2.8 0 0 0-2.8-2.8 2.066 2.066 0 0 0-.268 0h-.116a1.049 1.049 0 0 0-.216-.024L9.596 8Zm24.252 2.316a.742.742 0 0 0 0 .092 2.849 2.849 0 0 0-.028.4v27.2h-23.2v-28h23.316l-.088.308Zm2.484-.276a.8.8 0 0 1 .728.1.8.8 0 0 1 .344.656v4.4h-1.6v-4.4a.801.801 0 0 1 .235-.566.82.82 0 0 1 .293-.19Z"/><path d="M30.24 20.796a.76.76 0 0 0 .756-.76v-2.88a.756.756 0 0 0-.756-.756h-2.88a.759.759 0 0 0-.573 1.315.759.759 0 0 0 .573.201h.732l-4.272 4.268-4.156-2.08a.996.996 0 0 0-1.152.188l-4.8 4.8a1 1 0 0 0 0 1.412 1.024 1.024 0 0 0 1.412 0l4.272-4.292 4.156 2.08a1 1 0 0 0 1.152-.188l4.776-4.8v.712a.76.76 0 0 0 .76.78ZM21.596 12.8h-7.2a1 1 0 1 0 0 2h7.2a1 1 0 0 0 0-2ZM17.995 16.4h-3.6a1 1 0 0 0 0 2h3.6a1 1 0 1 0 0-2Z"/></g>
		</symbol>
		<symbol id="icon-campaigns" viewBox="0 0 48 48">
			<g><path d="M29.621 8.8a1.24 1.24 0 0 0-2.128-.332l-7.776 9.776-9.452 3.6a1.848 1.848 0 0 0-1.128 2.236l-1.272.48a2.36 2.36 0 0 0-1.364 3.036l1.404 3.696a2.36 2.36 0 0 0 2.2 1.52c.283 0 .564-.05.828-.152l1.276-.484c.188.39.507.7.9.88.242.107.504.163.768.164.227.001.453-.041.664-.124l.364-.136 3.292 6.464a1.067 1.067 0 0 0 .956.588c.137.002.272-.022.4-.068l3.076-1.168a1.07 1.07 0 0 0 .572-1.5l-1.76-3.372.284-.4a2.68 2.68 0 0 0 .34-2.52l-.256-.672 2.196-.832 12.296 2.152a1.224 1.224 0 0 0 1.176-.424 1.248 1.248 0 0 0 .204-1.232L29.621 8.8Zm-8.4 10.332 7.068-8.892 7.42 19.548-11.2-1.96-3.288-8.696ZM9.717 25.7l1.836 4.844-1.26.476a.61.61 0 0 1-.8-.352l-1.4-3.7a.612.612 0 0 1 .356-.8l1.268-.468Zm11.456 3.004-7.06 2.68-.192.072a.123.123 0 0 1-.1 0c-.02 0-.028-.028-.04-.048l-2.968-7.812a.112.112 0 0 1 0-.072.12.12 0 0 1 .072-.068l8.856-3.364 3.036 8-1.6.608-.004.004Zm-1.008 2.248.252.664a.912.912 0 0 1-.116.88l-.92 1.268 1.908 3.632-1.812.688-2.932-5.764.46-.172 3.16-1.196ZM36.541 18.304a.868.868 0 0 0 .8.56c.105 0 .21-.02.308-.056l2.332-.884a.849.849 0 0 0 .484-.456.872.872 0 0 0-.424-1.164.85.85 0 0 0-.664 0l-2.336.872a.868.868 0 0 0-.5 1.128ZM34.005 13.672a.856.856 0 0 0 .628-.268l1.728-1.8a.876.876 0 0 0-.024-1.232.876.876 0 0 0-1.232.024L33.377 12.2a.85.85 0 0 0-.24.62.86.86 0 0 0 .868.852ZM41.442 23.736a.868.868 0 0 0-.596-.304l-2.484-.204a.872.872 0 0 0-.14 1.736l2.484.204h.072a.868.868 0 0 0 .664-1.432Z"/><path d="M18.674 22.096a.854.854 0 0 0-.664-.02l-4.568 1.732a.856.856 0 0 0-.488.456.889.889 0 0 0 0 .664.878.878 0 0 0 .46.488c.21.094.449.101.664.02l4.564-1.732a.871.871 0 0 0 .048-1.6l-.016-.008Z"/></g>
		</symbol>
		<symbol id="icon-email" viewBox="0 0 16 16">
			<path d="M8 0C3.584 0 0 3.584 0 8s3.584 8 8 8h4v-1.6H8c-3.472 0-6.4-2.928-6.4-6.4 0-3.472 2.928-6.4 6.4-6.4 3.472 0 6.4 2.928 6.4 6.4v1.144c0 .632-.568 1.256-1.2 1.256S12 9.776 12 9.144V8c0-2.208-1.792-4-4-4S4 5.792 4 8a4.001 4.001 0 0 0 6.832 2.824c.52.712 1.416 1.176 2.368 1.176 1.576 0 2.8-1.28 2.8-2.856V8c0-4.416-3.584-8-8-8Zm0 10.4A2.397 2.397 0 0 1 5.6 8c0-1.328 1.072-2.4 2.4-2.4 1.328 0 2.4 1.072 2.4 2.4 0 1.328-1.072 2.4-2.4 2.4Z"/>
		</symbol>


		<symbol id="icon-clear-branding" viewBox="0 0 55 64">
			<g><path d="M47.144 55.88a1.6 1.6 0 0 0-1.696-1.728c-10.608 0-16.456-4.8-16.456-13.6a1.728 1.728 0 0 0-3.448 0c0 5.12 1.936 17.024 19.904 17.024a1.598 1.598 0 0 0 1.696-1.696Z"/><path d="M48.648 48.368c2.92-2.496 4-6.544 3.008-11.104-2.104-9.472-8.44-16.288-17.384-18.696a26.025 26.025 0 0 0-25.96 7.656c-4 4.304-9.6 13.752-2.944 28.568a1.664 1.664 0 0 0 1.008.944 1.8 1.8 0 0 0 1.264-.112c.398-.174.72-.483.912-.872a1.6 1.6 0 0 0-.04-1.376c-5.88-13.016-1.064-21.136 2.336-24.8a22.583 22.583 0 0 1 22.512-6.648C41.04 24 46.488 29.864 48.296 38.032c.728 3.272 0 6.128-2.032 7.848a5.345 5.345 0 0 1-5.464.96c-2.448-.968-4.096-3.656-4.512-7.384-.608-5.448-4.904-7.84-8.976-7.84h-.264a9.6 9.6 0 0 0-9.552 9.32 21.096 21.096 0 0 0 4.36 14.552c3.128 4 7.824 6.928 13.6 8.464a1.599 1.599 0 0 0 1.6-.376 1.944 1.944 0 0 0 .488-1.824 1.544 1.544 0 0 0-1.2-1.128c-5.032-1.352-9.096-3.856-11.76-7.248a17.72 17.72 0 0 1-3.624-12.24 6.248 6.248 0 0 1 6.192-6.096 5.384 5.384 0 0 1 5.736 4.8c.8 6.888 4.432 9.312 6.544 10.144a9.071 9.071 0 0 0 9.216-1.616ZM27.6 0C20.48 0 13.264 2.4 8.496 7.2a1.728 1.728 0 0 0 2.44 2.44c7.944-7.936 24.432-8.248 32.08-.592a1.728 1.728 0 0 0 2.4-2.448C41.08 2.176 34.4 0 27.6 0Z"/><path d="M53.704 26.656a1.6 1.6 0 0 0 .264-2.4c-7.8-9.6-17-14.824-26.592-14.992-9.592-.168-18.832 4.648-26.92 13.944a1.6 1.6 0 0 0-.368 1.6 1.943 1.943 0 0 0 1.432 1.24 1.6 1.6 0 0 0 1.536-.576c7.272-8.368 15.512-12.8 23.848-12.8h.424c8.544.152 16.8 4.896 24 13.712a1.6 1.6 0 0 0 2.376.272Z"/><path d="M19.864 62.752a1.723 1.723 0 0 0 2.288-2.576 24.558 24.558 0 0 1-6.056-8.384c-2.688-6.064-3.304-14.536 1.368-19.776 3.704-4.16 9.032-5.6 13.896-3.744 5.408 2.056 8.8 7.4 8.8 13.936a1.728 1.728 0 0 0 3.448 0 20.802 20.802 0 0 0-1.736-8.36 15.848 15.848 0 0 0-12.152-9.52c-.828-.134-1.666-.2-2.504-.2a16.487 16.487 0 0 0-12.304 5.6C11.112 34 8.32 42.696 12.96 53.184a28.143 28.143 0 0 0 6.904 9.568Z"/></g>
		</symbol>
		<symbol id="icon-clear-ux-ui" viewBox="0 0 64 64">
			<g><path d="M33.89 4.888a1.424 1.424 0 1 0 0 2.848 1.424 1.424 0 0 0 0-2.848ZM28.994 4.888a1.424 1.424 0 1 0 0 2.848 1.424 1.424 0 0 0 0-2.848ZM31.442 56.224a1.424 1.424 0 1 0 0 2.848 1.424 1.424 0 0 0 0-2.848ZM7.003 22.408a1.424 1.424 0 1 0-.034-2.847 1.424 1.424 0 0 0 .034 2.847ZM11.875 22.408a1.424 1.424 0 1 0 0-2.848 1.424 1.424 0 0 0 0 2.848ZM16.77 22.408a1.424 1.424 0 1 0-1.423-1.424 1.415 1.415 0 0 0 1.424 1.424ZM21.658 22.408a1.424 1.424 0 1 0 0-2.848 1.424 1.424 0 0 0 0 2.848ZM26.554 22.408a1.424 1.424 0 1 0-1.424-1.424 1.415 1.415 0 0 0 1.424 1.424ZM44.898 44.424a1.424 1.424 0 1 0 0-2.848 1.424 1.424 0 0 0 0 2.848ZM49.794 44.424h7.336a1.424 1.424 0 1 0 0-2.84h-7.336a1.424 1.424 0 1 0 0 2.84ZM44.898 49.32H57.13a1.424 1.424 0 1 0 0-2.848H44.898a1.424 1.424 0 0 0 0 2.848ZM44.898 54.208H57.13a1.423 1.423 0 1 0 0-2.84H44.898a1.424 1.424 0 1 0 0 2.84Z"/><path d="M62.019 36.688h-9.6V1.416A1.424 1.424 0 0 0 50.995 0h-39.12a1.424 1.424 0 0 0-1.425 1.416v13.256H2.09a1.424 1.424 0 0 0-1.423 1.424v9.784a1.424 1.424 0 0 0 1.423 1.424h8.36v35.272A1.424 1.424 0 0 0 11.876 64h39.127a1.424 1.424 0 0 0 1.424-1.424v-3.472h9.6a1.424 1.424 0 0 0 1.424-1.424V38.112a1.425 1.425 0 0 0-1.431-1.424Zm-1.416 2.848v16.688h-19.2v-16.72l19.2.032ZM13.297 9.824V2.88h36.296v6.944H13.3Zm25.288 28.328v13.256H13.3V27.304h18.143a1.424 1.424 0 0 0 1.425-1.424v-9.784a1.424 1.424 0 0 0-1.424-1.424H13.297v-2.048h36.296v24.064h-9.6a1.424 1.424 0 0 0-1.407 1.424v.04Zm1.416 20.992h9.6v2.048H13.3v-6.944h25.288v3.472a1.424 1.424 0 0 0 1.415 1.384v.04Zm-9.984-41.6v6.936H3.515v-6.936h26.503Z"/><path d="M31.442 30.576h-4.888A1.424 1.424 0 0 0 25.13 32v4.888a1.424 1.424 0 0 0 1.424 1.424h4.888a1.424 1.424 0 0 0 1.424-1.424V32a1.424 1.424 0 0 0-1.424-1.424Zm-1.424 2.84v2.048H27.97v-2.048h2.048ZM16.77 38.312h4.889a1.424 1.424 0 0 0 1.424-1.424V32a1.424 1.424 0 0 0-1.424-1.424H16.77A1.424 1.424 0 0 0 15.347 32v4.888a1.424 1.424 0 0 0 1.424 1.424Zm1.417-2.848v-2.048h2.048v2.048h-2.048ZM47.547 33.216v-4.888a6.303 6.303 0 0 0-2.592-5.096 5.095 5.095 0 1 0-7.448 0 6.306 6.306 0 0 0-2.592 5.096v4.888a1.424 1.424 0 0 0 1.424 1.424h9.784a1.424 1.424 0 0 0 1.424-1.424Zm-6.32-11.2a2.248 2.248 0 1 1 0-4.496 2.248 2.248 0 0 1 0 4.496Zm-3.464 6.312a3.473 3.473 0 1 1 6.936 0V31.8h-6.936v-3.472ZM16.77 43.2a1.425 1.425 0 1 0-1.315-.872 1.416 1.416 0 0 0 1.316.872ZM31.443 40.36h-9.784a1.424 1.424 0 1 0 0 2.84h9.784a1.424 1.424 0 1 0 0-2.84ZM31.443 45.248H16.77a1.424 1.424 0 0 0 0 2.848h14.672a1.424 1.424 0 1 0 0-2.848Z"/></g>
		</symbol>
		<symbol id="icon-clear-packaging" viewBox="0 0 60 64">
			<g><path d="M27.718 33.136a7.92 7.92 0 0 0-7.729-7.912v-2.712a1.6 1.6 0 0 0 1.409-1.6v-3.608a3.384 3.384 0 0 0-3.345-3.416H9.99a3.378 3.378 0 0 0-3.336 3.416v3.608a1.6 1.6 0 0 0 1.4 1.6v2.712a7.92 7.92 0 0 0-7.72 7.912v26.168A4.696 4.696 0 0 0 5.022 64h18a4.704 4.704 0 0 0 4.696-4.696V33.136ZM9.829 17.328c0-.136.088-.232.16-.232h8.064c.072 0 .16.096.16.232v2.016H9.83v-2.016ZM3.51 33.136a4.736 4.736 0 0 1 4.737-4.728h1.4a1.6 1.6 0 0 0 1.6-1.6V22.52h5.6v4.288a1.6 1.6 0 0 0 1.6 1.6h1.407a4.736 4.736 0 0 1 4.728 4.728v6.36h-4.28a7.128 7.128 0 0 0-12.463 0h-4.28l-.048-6.36Zm0 9.544h5.304a1.6 1.6 0 0 0 1.505-1.056 3.936 3.936 0 0 1 7.415 0 1.6 1.6 0 0 0 1.497 1.056h5.335v9.824H3.51V42.68Zm21.056 13.008v3.616a1.512 1.512 0 0 1-1.512 1.512h-18a1.512 1.512 0 0 1-1.511-1.512v-3.616h21.024ZM54.165 14.864l-2.792-.872V8.704a2.71 2.71 0 0 0 .872-1.984v-4A2.712 2.712 0 0 0 49.533.008H41.67a2.712 2.712 0 0 0-2.712 2.712v4a2.713 2.713 0 0 0 .872 1.984v5.288l-2.792.872c-2.816.88-5.384 4.536-5.384 7.656V58.128a5.872 5.872 0 0 0 5.864 5.864h16.168a5.873 5.873 0 0 0 5.864-5.864V22.52c0-3.12-2.568-6.776-5.384-7.656ZM34.837 49.16h2.296c2.008 3.304 5.144 5.256 8.464 5.256 3.32 0 6.464-1.952 8.472-5.256h2.296v8.976a2.68 2.68 0 0 1-2.68 2.672H37.517a2.68 2.68 0 0 1-2.68-2.68V49.16Zm8.176-34V9.432h5.176v5.728a1.6 1.6 0 0 0 1.112 1.52l3.912 1.224c1.504.472 3.152 2.888 3.152 4.616v10.136H54.07c-2.008-3.296-5.144-5.248-8.472-5.248-3.328 0-6.456 1.952-8.464 5.248h-2.296V22.52c0-1.728 1.648-4.144 3.152-4.616l3.912-1.224a1.6 1.6 0 0 0 1.112-1.52Zm8.752 31.68c-1.416 2.752-3.704 4.392-6.128 4.392s-4.704-1.6-6.12-4.392a1.6 1.6 0 0 0-1.416-.864h-3.2V35.84h3.2a1.601 1.601 0 0 0 1.416-.864c1.416-2.744 3.704-4.392 6.12-4.392s4.712 1.648 6.128 4.392a1.6 1.6 0 0 0 1.416.864h3.2v10.136h-3.2a1.6 1.6 0 0 0-1.416.864Zm-9.6-43.632h6.92V6.28h-6.92V3.208Z"/></g>
		</symbol>
		<symbol id="icon-clear-web-design" viewBox="0 0 76 64">
			<g><path d="M49.84 17.424a1.192 1.192 0 0 0-1.664-.192l-5.184 4.048a1.208 1.208 0 0 0-.336.416 1.168 1.168 0 0 0 0 1.032c.08.162.195.304.336.416l5.184 4a1.192 1.192 0 0 0 1.664-.184 1.209 1.209 0 0 0-.184-1.712l-3.944-3.08 3.944-3.08a1.192 1.192 0 0 0 .184-1.664ZM66.496 21.24l-5.176-4.048a1.203 1.203 0 1 0-1.48 1.896l3.944 3.08-3.944 3.08a1.203 1.203 0 1 0 1.48 1.896l5.176-4a1.169 1.169 0 0 0 .344-1.448 1.232 1.232 0 0 0-.344-.456ZM57.176 11.44a1.207 1.207 0 0 0-1.448.92l-4.344 19.08a1.23 1.23 0 1 0 2.4.536l4.336-19.072a1.214 1.214 0 0 0-.944-1.464ZM35.488 23.224H7.76a1.512 1.512 0 0 0-1.512 1.512v10.288a1.512 1.512 0 0 0 1.512 1.512h27.728A1.512 1.512 0 0 0 37 35.024V24.736a1.512 1.512 0 0 0-1.512-1.512ZM33.976 33.48H9.272v-7.2h24.704v7.2ZM35.488 6.224H7.76a1.512 1.512 0 0 0-1.512 1.512v12.088a1.512 1.512 0 0 0 1.512 1.512h27.728A1.512 1.512 0 0 0 37 19.824V7.752a1.513 1.513 0 0 0-1.512-1.528Zm-1.512 12.104H9.272V9.264h24.704v9.064Z"/><path d="M71.512 0H4.496A4.48 4.48 0 0 0 0 4.456v45.016a4.496 4.496 0 0 0 4.496 4.488h24.392a20.078 20.078 0 0 1-5.64 6.624h-2.816a1.714 1.714 0 0 0-1.829 1.708A1.712 1.712 0 0 0 20.432 64H55.56a1.71 1.71 0 0 0 1.285-2.96 1.713 1.713 0 0 0-1.285-.456h-2.84a20.496 20.496 0 0 1-5.6-6.624h24.408a4.48 4.48 0 0 0 4.456-4.488V4.456A4.463 4.463 0 0 0 71.512 0Zm-43.2 60.576a18.398 18.398 0 0 0 4.232-6.616h10.832a18.583 18.583 0 0 0 4.24 6.616H28.312Zm44.2-17.832v6.728a1.048 1.048 0 0 1-1.04 1.072H4.496a1.063 1.063 0 0 1-1.072-1.072v-6.728h69.088Zm0-38.288v34.872H3.424V4.456a1.056 1.056 0 0 1 1.072-1.032h67.016a1.024 1.024 0 0 1 1.04 1.032h-.04Z"/><path d="M9.768 47.696a1.446 1.446 0 0 0 0-2.112 1.504 1.504 0 0 0-2.112 0 1.456 1.456 0 0 0 0 2.112 1.47 1.47 0 0 0 2.112 0ZM15.632 47.696a1.496 1.496 0 1 0-2.112 0 1.455 1.455 0 0 0 2.112 0ZM21.52 47.696a1.472 1.472 0 0 0 0-2.112 1.6 1.6 0 0 0-2.152 0 1.52 1.52 0 0 0 .492 2.45 1.495 1.495 0 0 0 1.66-.338Z"/></g>
		</symbol>
		<symbol id="icon-clear-marketing" viewBox="0 0 62 64">
			<g><path d="M9.526 48a2 2 0 0 0-1.992 2v4.8a2 2 0 1 0 4 0V50a1.991 1.991 0 0 0-2.008-2ZM18.726 45.224a2 2 0 0 0-4 0v9.6a2 2 0 0 0 4 0v-9.6ZM25.926 40.424a2 2 0 1 0-4 0v14.4a2 2 0 0 0 4 0v-14.4ZM31.125 45.6a2 2 0 0 0-1.992 2v7.2a2 2 0 0 0 4 0v-7.2a2 2 0 0 0-2.008-2ZM38.334 38.4a2 2 0 0 0-2 2v14.4a2 2 0 1 0 4 0V40.424a2 2 0 0 0-2-2.024ZM45.534 33.6a2 2 0 0 0-2 2v19.2a2 2 0 0 0 4 0V35.624a2 2 0 0 0-2-2.024Z"/><path d="M2.325 0A1.984 1.984 0 0 0 .334 1.992v60a1.992 1.992 0 0 0 1.991 2h50.4a2 2 0 0 0 1.992-2v-43.6h5.209a1.992 1.992 0 0 0 1.991-2v-10.8a5.6 5.6 0 0 0-5.6-5.6 4.128 4.128 0 0 0-.535 0h-.232a2.096 2.096 0 0 0-.432-.048L2.325 0ZM50.83 4.632a1.486 1.486 0 0 0 0 .184 5.68 5.68 0 0 0-.056.8v54.4h-46.4v-56h46.631l-.175.616Zm4.968-.552a1.6 1.6 0 0 1 1.456.2 1.6 1.6 0 0 1 .688 1.312v8.8h-3.2v-8.8a1.6 1.6 0 0 1 .47-1.132 1.64 1.64 0 0 1 .585-.38Z"/><path d="M43.614 25.592a1.52 1.52 0 0 0 1.512-1.52v-5.76a1.512 1.512 0 0 0-1.512-1.512h-5.76a1.52 1.52 0 1 0 0 3.032h1.464l-8.544 8.536-8.312-4.16a2.097 2.097 0 0 0-.896-.208c-.528 0-1.035.21-1.408.584l-9.6 9.6a2 2 0 0 0 0 2.824 2.048 2.048 0 0 0 2.824 0l8.544-8.584 8.312 4.16a2 2 0 0 0 2.304-.376l9.552-9.6v1.424a1.519 1.519 0 0 0 1.52 1.56ZM26.326 9.6h-14.4a2 2 0 1 0 0 4h14.4a2 2 0 0 0 0-4ZM19.126 16.8h-7.2a2 2 0 0 0 0 4h7.2a2 2 0 0 0 0-4Z"/></g>
		</symbol>
		<symbol id="icon-clear-campaigns" viewBox="0 0 72 64">
			<g><path d="M47.21 1.6a2.48 2.48 0 0 0-4.255-.664L27.403 20.488l-18.904 7.2a3.696 3.696 0 0 0-2.256 4.472l-2.544.96A4.72 4.72 0 0 0 .97 39.192l2.808 7.392a4.72 4.72 0 0 0 4.4 3.04 4.61 4.61 0 0 0 1.656-.304l2.552-.968a3.704 3.704 0 0 0 1.8 1.76 3.818 3.818 0 0 0 1.536.328c.454.002.905-.082 1.328-.248l.728-.272 6.584 12.928a2.136 2.136 0 0 0 1.912 1.176c.272.003.543-.043.8-.136l6.152-2.336a2.145 2.145 0 0 0 1.388-2.131 2.11 2.11 0 0 0-.244-.869l-3.52-6.744.568-.8a5.36 5.36 0 0 0 .68-5.04l-.512-1.344 4.392-1.664 24.592 4.304c.147.033.297.049.448.048a2.448 2.448 0 0 0 1.904-.896 2.496 2.496 0 0 0 .408-2.464L47.21 1.6Zm-16.8 20.664L44.548 4.48l14.84 39.096-22.4-3.92-6.576-17.392ZM7.404 35.4l3.672 9.688-2.52.952a1.225 1.225 0 0 1-1.6-.704l-2.8-7.4a1.224 1.224 0 0 1 .712-1.6l2.536-.936Zm22.912 6.008-14.12 5.36-.384.144a.25.25 0 0 1-.2 0c-.04 0-.056-.056-.08-.096L9.595 31.192a.224.224 0 0 1 0-.144.24.24 0 0 1 .144-.136l17.712-6.728 6.072 16-3.2 1.216-.008.008Zm-2.016 4.496.504 1.328a1.824 1.824 0 0 1-.232 1.76l-1.84 2.536 3.816 7.264-3.624 1.376-5.864-11.528.92-.344 6.32-2.392ZM61.05 20.608a1.736 1.736 0 0 0 1.6 1.12c.211-.002.42-.04.617-.112l4.664-1.768a1.695 1.695 0 0 0 .968-.912 1.743 1.743 0 0 0-.848-2.328 1.704 1.704 0 0 0-1.328 0l-4.672 1.744a1.733 1.733 0 0 0-1 2.256ZM55.978 11.344a1.71 1.71 0 0 0 1.256-.536l3.456-3.6a1.752 1.752 0 0 0-.047-2.464 1.752 1.752 0 0 0-2.465.048L54.724 8.4a1.704 1.704 0 0 0-.48 1.24 1.72 1.72 0 0 0 1.735 1.704ZM70.85 31.472a1.735 1.735 0 0 0-1.192-.608l-4.968-.408a1.76 1.76 0 0 0-1.264.408 1.744 1.744 0 0 0-.2 2.456 1.673 1.673 0 0 0 1.184.608l4.968.408h.144a1.737 1.737 0 0 0 1.328-2.864Z"/><path d="M25.314 28.192a1.704 1.704 0 0 0-1.328-.04l-9.136 3.464a1.712 1.712 0 0 0-.976.912 1.776 1.776 0 0 0 0 1.328 1.75 1.75 0 0 0 2.248 1.016l9.128-3.464a1.743 1.743 0 0 0 .096-3.2l-.032-.016Z"/></g>
		</symbol>
		<symbol id="icon-send-form" viewBox="0 0 16 16">
			<path d="M1.82311 1.07588L14.8434 7.303C14.975 7.36584 15.0861 7.46465 15.1639 7.588C15.2417 7.71136 15.283 7.85421 15.283 8.00005C15.283 8.14588 15.2417 8.28874 15.1639 8.41209C15.0861 8.53545 14.975 8.63426 14.8434 8.6971L1.82311 14.9242C1.68964 14.9881 1.5406 15.0124 1.39375 14.9941C1.24689 14.9757 1.10839 14.9156 0.994727 14.8208C0.881064 14.726 0.797024 14.6006 0.752604 14.4594C0.708184 14.3182 0.705256 14.1673 0.744167 14.0245L2.04681 9.24893C2.06276 9.1904 2.09558 9.13786 2.14118 9.09786C2.18679 9.05786 2.24316 9.03217 2.30326 9.024L8.61256 8.16689C8.63893 8.16314 8.66389 8.15264 8.685 8.1364C8.70612 8.12015 8.72267 8.09873 8.73306 8.0742L8.74419 8.03589C8.74906 8.00139 8.74213 7.96625 8.72452 7.93619C8.7069 7.90612 8.67965 7.8829 8.64717 7.87028L8.61318 7.86101L2.31006 7.00391C2.25006 6.99561 2.19383 6.96987 2.14834 6.92988C2.10286 6.88989 2.07013 6.83741 2.05423 6.77897L0.744167 1.97624C0.705098 1.83341 0.707907 1.68236 0.75226 1.54108C0.796613 1.3998 0.88064 1.27424 0.994333 1.17937C1.10803 1.0845 1.24659 1.0243 1.39353 1.00595C1.54047 0.987605 1.68958 1.01188 1.82311 1.07588V1.07588Z" />
		</symbol>
		<symbol id="icon-bell" viewBox="0 0 16 16">
			<path d="M8.00002 15C8.9658 15 9.7492 14.2166 9.7492 13.25H6.25084C6.25084 14.2166 7.03424 15 8.00002 15ZM13.8896 10.9064C13.3613 10.3387 12.3728 9.48477 12.3728 6.6875C12.3728 4.56289 10.8831 2.86211 8.87447 2.44484V1.875C8.87447 1.39184 8.48291 1 8.00002 1C7.51713 1 7.12557 1.39184 7.12557 1.875V2.44484C5.11689 2.86211 3.62721 4.56289 3.62721 6.6875C3.62721 9.48477 2.63873 10.3387 2.11045 10.9064C1.94639 11.0827 1.87365 11.2936 1.87502 11.5C1.87803 11.9484 2.22994 12.375 2.75275 12.375H13.2473C13.7701 12.375 14.1223 11.9484 14.125 11.5C14.1264 11.2936 14.0537 11.0825 13.8896 10.9064V10.9064Z"/>
		</symbol>



		<symbol id="icon-ID" viewBox="0 0 50 50">
			
		</symbol>
	</defs>
</svg>