<svg width="384" height="753" viewBox="0 0 384 753" fill="none" xmlns="http://www.w3.org/2000/svg">
<g opacity="0.6" clip-path="url(#clip0_1299_31429)">
<rect width="384" height="591" fill="#F4B9A4"/>
<path d="M-8.00133 124.979L19.0601 116.391L46.1215 124.979L70.4571 117.245L43.3957 108.657L70.4571 100.069L46.1215 92.3184L19.0601 100.923L-8.00133 92.3184L-32.3369 100.069L-5.29189 108.657L-32.3369 117.245L-8.00133 124.979Z" fill="white"/>
<path d="M73.9873 135.571V150.514L97.5183 143.042L73.9873 135.571Z" fill="white"/>
<path d="M-5.27539 160.234L19.0602 167.969L43.4122 160.234L19.0602 152.5L-5.27539 160.234Z" fill="white"/>
<path d="M45.3002 227.872V195.736L19.8809 203.815V219.793L45.3002 227.872Z" fill="white"/>
<path d="M-7.18066 227.872V195.736L18.2387 203.815V219.793L-7.18066 227.872Z" fill="white"/>
<path d="M19.8809 151.039L45.3002 159.101V126.457L19.8809 118.378V151.039Z" fill="white"/>
<path d="M72.3456 116.128V101.185L48.8311 108.657L72.3456 116.128Z" fill="white"/>
<path d="M18.2387 151.039L-7.18066 159.101V126.457L18.2387 118.378V151.039Z" fill="white"/>
<path d="M72.3452 118.378L46.9423 126.457V160.826L19.8809 169.43V202.091L46.9423 193.487V227.872L72.3452 219.793V185.424L99.4067 176.819V144.159L72.3452 152.763V118.378Z" fill="white"/>
<path d="M-34.2257 118.378L-8.82273 126.457V160.826L18.2387 169.43V202.091L-8.82273 193.487V227.872L-34.2257 219.793V185.424L-61.2871 176.819V144.159L-34.2257 152.763V118.378Z" fill="white"/>
<path d="M127.29 167.969L154.335 159.364L181.396 167.969L205.748 160.235L178.687 151.63L205.732 143.042L181.396 135.308L154.335 143.896L127.29 135.308L102.938 143.042L129.999 151.63L102.938 160.235L127.29 167.969Z" fill="white"/>
<path d="M209.278 178.544V193.487L232.793 186.015L209.278 178.544Z" fill="white"/>
<path d="M129.998 203.208L154.334 210.942L178.686 203.208L154.334 195.474L129.998 203.208Z" fill="white"/>
<path d="M180.575 270.861V238.709L155.155 246.788L155.172 262.782L180.575 270.861Z" fill="white"/>
<path d="M99.4071 178.544V193.487L75.8926 186.015L99.4071 178.544Z" fill="white"/>
<path d="M128.11 270.861V238.709L153.53 246.788L153.513 262.782L128.11 270.861Z" fill="white"/>
<path d="M155.155 194.012L180.575 202.091V169.43L155.155 161.351V194.012Z" fill="white"/>
<path d="M207.636 159.102V144.159L184.105 151.63L207.636 159.102Z" fill="white"/>
<path d="M153.513 194.012L128.11 202.091V169.43L153.513 161.351V194.012Z" fill="white"/>
<path d="M101.049 159.102V144.159L124.58 151.63L101.049 159.102Z" fill="white"/>
<path d="M207.636 161.351L182.217 169.43V203.815L155.155 212.404V245.064L182.217 236.476V270.861L207.636 262.782V228.397L234.698 219.793V187.132L207.636 195.736V161.351Z" fill="white"/>
<path d="M101.049 161.351L126.468 169.43V203.815L153.53 212.404L153.513 245.064L126.468 236.476V270.861L101.049 262.782V228.397L73.9873 219.793V187.132L101.049 195.736V161.351Z" fill="white"/>
<path d="M16.3507 31.282L-8.00133 39.0326L-32.3369 31.282L-8.00133 23.5479L16.3507 31.282Z" fill="white"/>
<path d="M46.9258 6.61841L46.9422 21.5777L70.4567 14.1063L46.9258 6.61841Z" fill="white"/>
<path d="M18.2387 98.9358V66.8003L-7.18066 74.8629V90.8567L18.2387 98.9358Z" fill="white"/>
<path d="M-7.18066 22.0864L18.2387 30.1655V-2.4955L-7.18066 -10.5581V22.0864Z" fill="white"/>
<path d="M45.3001 -10.5581L19.8808 -2.4955V31.8896L-7.18066 40.4777V73.155L19.8808 64.5506V98.9357L45.3001 90.8566V56.4715L72.3452 47.8835V15.2225L45.3001 23.8106V-10.5581Z" fill="white"/>
<path d="M73.1666 253.932L46.1216 245.327L19.0602 253.932L-5.27539 246.197L21.7696 237.593L-5.27539 229.005L19.0602 221.271L46.1216 229.859L73.1666 221.271L97.5187 229.005L70.4737 237.593L97.5187 246.197L73.1666 253.932Z" fill="white"/>
<path d="M70.4571 289.171L46.1215 296.905L21.7695 289.171L46.1215 281.436L70.4571 289.171Z" fill="white"/>
<path d="M19.8809 356.808V324.672L45.3002 332.751V348.745L19.8809 356.808Z" fill="white"/>
<path d="M101.049 264.507V279.45L124.58 271.978L101.049 264.507Z" fill="white"/>
<path d="M72.3453 356.808V324.672L46.9424 332.751V348.745L72.3453 356.808Z" fill="white"/>
<path d="M45.3002 279.975L19.8809 288.038V255.393L45.3002 247.314V279.975Z" fill="white"/>
<path d="M-7.18066 245.064V230.121L16.3503 237.593L-7.18066 245.064Z" fill="white"/>
<path d="M46.9424 279.975L72.3453 288.038V255.393L46.9424 247.314V279.975Z" fill="white"/>
<path d="M99.4071 245.064V230.121L75.8926 237.593L99.4071 245.064Z" fill="white"/>
<path d="M-7.18056 247.314L18.2388 255.393V289.778L45.3002 298.366V331.027L18.2388 322.423V356.808L-7.18056 348.745V314.36L-34.2256 305.756V273.095L-7.18056 281.699V247.314Z" fill="white"/>
<path d="M99.4068 247.314L73.9874 255.393V289.778L46.9424 298.366V331.027L73.9874 322.423V356.808L99.4068 348.745V314.36L126.468 305.756V273.095L99.4068 281.699V247.314Z" fill="white"/>
<path d="M100.212 39.0328L127.273 30.4283L154.334 39.0328L178.67 31.2986L151.609 22.6941L178.67 14.1061L154.334 6.35547L127.273 14.9599L100.228 6.35547L75.876 14.1061L102.937 22.6941L75.876 31.2986L100.212 39.0328Z" fill="white"/>
<path d="M182.217 49.6079V64.5508L205.731 57.0793L182.217 49.6079Z" fill="white"/>
<path d="M102.938 74.272L127.273 82.0062L151.625 74.272L127.273 66.5378L102.938 74.272Z" fill="white"/>
<path d="M153.513 141.909V109.774L128.094 117.853V133.847L153.513 141.909Z" fill="white"/>
<path d="M72.3454 49.6079V64.5508L48.8145 57.0793L72.3454 49.6079Z" fill="white"/>
<path d="M101.049 141.909L101.032 109.774L126.452 117.853V133.847L101.049 141.909Z" fill="white"/>
<path d="M128.094 65.0762L153.513 73.1552V40.4943L128.094 32.4153V65.0762Z" fill="white"/>
<path d="M180.575 30.1658V15.2229L157.044 22.6943L180.575 30.1658Z" fill="white"/>
<path d="M126.452 65.0762L101.032 73.1552V40.4943L126.452 32.4153V65.0762Z" fill="white"/>
<path d="M73.9873 30.1658V15.2229L97.5019 22.6943L73.9873 30.1658Z" fill="white"/>
<path d="M180.575 32.4153L155.155 40.4943V74.863L128.094 83.4675V116.128L155.155 107.524V141.909L180.575 133.846V99.4613L207.62 90.8568V58.1959L180.575 66.8004V32.4153Z" fill="white"/>
<path d="M73.9872 32.4153L99.4066 40.4943V74.863L126.452 83.4675V116.128L99.4066 107.524V141.909L73.9872 133.846V99.4613L46.9258 90.8568V58.1959L73.9872 66.8004V32.4153Z" fill="white"/>
<path d="M73.9871 12.9734L73.9707 -19.1621L99.4065 -11.0831L99.39 4.89432L73.9871 12.9734Z" fill="white"/>
<path d="M126.452 12.9734V-19.1621L101.032 -11.0831L101.049 4.89432L126.452 12.9734Z" fill="white"/>
<path d="M46.9257 -96.5205L72.3451 -88.4579V-54.0728L99.4065 -45.4683L99.3901 -12.8074L72.3451 -21.4119V12.9733L46.9257 4.89421V-29.4745L19.8643 -38.0789V-70.7399L46.9257 -62.1518V-96.5205Z" fill="white"/>
<path d="M153.513 -96.5205L128.094 -88.4579V-54.0728L101.032 -45.4683V-12.8074L128.094 -21.4119V12.9733L153.513 4.89421V-29.4745L180.574 -38.0789V-70.7399L153.513 -62.1518V-96.5205Z" fill="white"/>
<path d="M346.49 31.2327L370.826 38.9833L395.178 31.2327L370.826 23.5149L346.49 31.2327Z" fill="white"/>
<path d="M397.066 98.8865V66.751L371.646 74.83V90.8074L397.066 98.8865Z" fill="white"/>
<path d="M315.898 6.58545V21.5284L292.367 14.0569L315.898 6.58545Z" fill="white"/>
<path d="M344.586 98.8865V66.751L370.005 74.83V90.8074L344.586 98.8865Z" fill="white"/>
<path d="M371.646 22.0376L397.066 30.1166V-2.54433L371.646 -10.6069V22.0376Z" fill="white"/>
<path d="M370.005 22.0376L344.586 30.1166V-2.54433L370.005 -10.6069V22.0376Z" fill="white"/>
<path d="M424.127 -10.6069L398.708 -2.54433V31.8408L371.646 40.4453V73.1062L398.708 64.5017V98.8868L424.127 90.8078V56.4227L451.172 47.8347V15.1737L424.127 23.7618V-10.6069Z" fill="white"/>
<path d="M317.54 -10.6069L342.959 -2.54433V31.8408L370.004 40.4453V73.1062L342.943 64.5017V98.8868L317.54 90.8078V56.4227L290.479 47.8347V15.1737L317.54 23.7618V-10.6069Z" fill="white"/>
<path d="M262.596 210.893L289.658 202.305L316.719 210.893L341.071 203.159L314.01 194.571L341.055 185.966L316.719 178.232L289.658 186.836L262.613 178.232L238.261 185.966L265.322 194.571L238.261 203.159L262.596 210.893Z" fill="white"/>
<path d="M344.602 221.484V236.427L368.116 228.955L344.602 221.484Z" fill="white"/>
<path d="M265.322 246.148L289.658 253.882L314.01 246.148L289.658 238.414L265.322 246.148Z" fill="white"/>
<path d="M315.898 313.785V281.65L290.479 289.729L290.495 305.706L315.898 313.785Z" fill="white"/>
<path d="M234.73 221.484V236.427L211.199 228.955L234.73 221.484Z" fill="white"/>
<path d="M263.434 313.785L263.418 281.65L288.854 289.729L288.837 305.706L263.434 313.785Z" fill="white"/>
<path d="M290.479 236.952L315.898 245.015V212.354L290.479 204.292V236.952Z" fill="white"/>
<path d="M342.96 202.042V187.099L319.429 194.571L342.96 202.042Z" fill="white"/>
<path d="M288.837 236.952L263.418 245.015V212.354L288.837 204.292V236.952Z" fill="white"/>
<path d="M236.372 202.042V187.099L259.887 194.571L236.372 202.042Z" fill="white"/>
<path d="M342.959 204.292L317.54 212.354V246.739L290.479 255.344V288.005L317.54 279.4V313.785L342.959 305.706V271.338L370.021 262.733V230.072L342.959 238.66V204.292Z" fill="white"/>
<path d="M236.372 204.292L261.791 212.354V246.739L288.853 255.344L288.836 288.005L261.791 279.4V313.785L236.372 305.706V271.338L209.311 262.733V230.072L236.372 238.66V204.292Z" fill="white"/>
<path d="M370.826 124.946L397.887 116.342L424.949 124.946L449.284 117.196L422.223 108.608L449.284 100.02L424.949 92.269L397.887 100.874L370.826 92.269L346.49 100.02L373.535 108.608L346.49 117.196L370.826 124.946Z" fill="white"/>
<path d="M373.535 160.185L397.887 167.919L422.239 160.185L397.887 152.451L373.535 160.185Z" fill="white"/>
<path d="M342.96 135.521V150.464L319.429 142.993L342.96 135.521Z" fill="white"/>
<path d="M371.646 227.822V195.687L397.066 203.766V219.76L371.646 227.822Z" fill="white"/>
<path d="M397.066 150.99L371.646 159.052V126.391L397.066 118.329V150.99Z" fill="white"/>
<path d="M344.586 116.079V101.136L368.117 108.607L344.586 116.079Z" fill="white"/>
<path d="M344.601 118.329L370.004 126.391V160.777L397.066 169.381V202.042L370.004 193.437V227.823L344.601 219.76V185.375L317.54 176.77V144.109L344.601 152.714V118.329Z" fill="white"/>
<path d="M397.887 253.882L424.949 245.278L451.994 253.882L476.346 246.148L449.284 237.544L476.346 228.956L451.994 221.221L424.949 229.809L397.887 221.221L373.535 228.956L400.597 237.544L373.535 246.148L397.887 253.882Z" fill="white"/>
<path d="M370.021 264.458V279.4L346.49 271.929L370.021 264.458Z" fill="white"/>
<path d="M371.646 245.015V230.072L395.177 237.544L371.646 245.015Z" fill="white"/>
<path d="M371.663 247.265L397.066 255.344V289.729L424.127 298.317V330.978L397.066 322.39V356.775L371.663 348.696V314.311L344.602 305.706V273.046L371.663 281.65V247.265Z" fill="white"/>
<path d="M289.658 81.9568L262.613 73.3523L235.551 81.9568L211.199 74.2226L238.261 65.6182L211.199 57.0301L235.551 49.2959L262.613 57.9004L289.658 49.2959L314.01 57.0301L286.948 65.6346L314.01 74.2226L289.658 81.9568Z" fill="white"/>
<path d="M207.669 92.532V107.491L184.154 100.003L207.669 92.532Z" fill="white"/>
<path d="M286.948 117.196L262.596 124.93L238.261 117.196L262.596 109.461L286.948 117.196Z" fill="white"/>
<path d="M236.372 184.849V152.714L261.791 160.793L261.775 176.77L236.372 184.849Z" fill="white"/>
<path d="M317.54 92.532V107.491L341.055 100.003L317.54 92.532Z" fill="white"/>
<path d="M288.837 184.849V152.714L263.418 160.793L263.434 176.77L288.837 184.849Z" fill="white"/>
<path d="M261.775 108L236.372 116.079V83.4181L261.775 75.3391V108Z" fill="white"/>
<path d="M209.311 73.106V58.1631L232.842 65.6346L209.311 73.106Z" fill="white"/>
<path d="M263.434 108L288.837 116.079V83.4181L263.434 75.3391V108Z" fill="white"/>
<path d="M315.898 73.106V58.1631L292.384 65.6346L315.898 73.106Z" fill="white"/>
<path d="M209.311 75.3391L234.731 83.4181V117.803L261.792 126.391L261.776 159.052L234.731 150.464V184.849L209.311 176.77V142.385L182.25 133.797V101.136L209.311 109.724V75.3391Z" fill="white"/>
<path d="M315.899 75.3391L290.479 83.4181V117.803L263.418 126.391V159.052L290.479 150.464V184.849L315.899 176.77V142.385L342.96 133.797V101.136L315.899 109.724V75.3391Z" fill="white"/>
<path d="M261.791 55.9133V23.7615L236.372 31.8405V47.8343L261.791 55.9133Z" fill="white"/>
<path d="M209.311 55.9133V23.7615L234.73 31.8405V47.8343L209.311 55.9133Z" fill="white"/>
<path d="M288.853 -53.5969L263.434 -45.5179V-11.1328L236.372 -2.54473V30.1162L263.434 21.5281V55.9132L288.853 47.8343V13.4491L315.898 4.86106V-27.7999L288.853 -19.2118V-53.5969Z" fill="white"/>
<path d="M182.266 -53.5969L207.669 -45.5179V-11.1328L234.731 -2.54473V30.1162L207.669 21.5281V55.9132L182.266 47.8343V13.4491L155.205 4.86106V-27.7999L182.266 -19.2118V-53.5969Z" fill="white"/>
<path d="M154.35 296.872L181.412 288.267L208.473 296.872L232.825 289.138L205.764 280.533L232.825 271.945L208.473 264.211L181.412 272.799L154.367 264.211L130.015 271.945L157.076 280.533L130.015 289.138L154.35 296.872Z" fill="white"/>
<path d="M236.355 307.447V322.39L259.87 314.919L236.355 307.447Z" fill="white"/>
<path d="M157.076 332.111L181.412 339.845L205.764 332.111L181.412 324.377L157.076 332.111Z" fill="white"/>
<path d="M207.653 399.764V367.613L182.233 375.692L182.25 391.685L207.653 399.764Z" fill="white"/>
<path d="M126.484 307.447V322.39L102.953 314.919L126.484 307.447Z" fill="white"/>
<path d="M155.188 399.764L155.172 367.613L180.608 375.692L180.591 391.685L155.188 399.764Z" fill="white"/>
<path d="M182.233 322.915L207.653 330.994V298.333L182.233 290.254V322.915Z" fill="white"/>
<path d="M234.714 288.021V273.062L211.183 280.533L234.714 288.021Z" fill="white"/>
<path d="M180.591 322.915L155.172 330.994V298.333L180.591 290.254V322.915Z" fill="white"/>
<path d="M128.127 288.021V273.062L151.658 280.533L128.127 288.021Z" fill="white"/>
<path d="M234.714 290.254L209.295 298.333V332.719L182.233 341.307V373.968L209.295 365.379V399.765L234.714 391.686V357.3L261.776 348.712V316.051L234.714 324.64V290.254Z" fill="white"/>
<path d="M128.127 290.254L153.546 298.333V332.719L180.608 341.307L180.591 373.968L153.546 365.379V399.765L128.127 391.686V357.3L101.065 348.712V316.051L128.127 324.64V290.254Z" fill="white"/>
<path d="M397.083 393.393L397.066 408.336L373.552 400.865L397.083 393.393Z" fill="white"/>
<path d="M398.708 376.201L424.127 384.28V418.665L451.189 427.253V459.914L424.127 451.326V485.711L398.708 477.632V443.247L371.663 434.659V401.998L398.708 410.586V376.201Z" fill="white"/>
<path d="M343.781 339.845L316.719 331.241L289.674 339.845L265.322 332.111L292.384 323.507L265.322 314.902L289.674 307.168L316.719 315.772L343.781 307.168L368.133 314.902L341.071 323.507L368.133 332.111L343.781 339.845Z" fill="white"/>
<path d="M261.792 350.42V365.363L238.261 357.891L261.792 350.42Z" fill="white"/>
<path d="M341.071 375.084L316.719 382.818L292.384 375.084L316.719 367.35L341.071 375.084Z" fill="white"/>
<path d="M290.495 442.721L290.479 410.586L315.898 418.665V434.659L290.495 442.721Z" fill="white"/>
<path d="M371.663 350.42V365.363L395.178 357.891L371.663 350.42Z" fill="white"/>
<path d="M342.959 442.721V410.586L317.54 418.665V434.659L342.959 442.721Z" fill="white"/>
<path d="M315.898 365.888L290.495 373.951V341.29L315.898 333.228V365.888Z" fill="white"/>
<path d="M263.434 330.978V316.035L286.948 323.506L263.434 330.978Z" fill="white"/>
<path d="M317.54 365.888L342.959 373.951V341.29L317.54 333.228V365.888Z" fill="white"/>
<path d="M370.021 330.978V316.035L346.49 323.506L370.021 330.978Z" fill="white"/>
<path d="M263.434 333.228L288.853 341.29V375.692L315.898 384.28V416.941L288.853 408.336V442.721L263.434 434.659V400.274L236.372 391.669V359.008L263.434 367.613V333.228Z" fill="white"/>
<path d="M370.021 333.228L344.601 341.29V375.692L317.54 384.28V416.941L344.601 408.336V442.721L370.021 434.659V400.274L397.066 391.669V359.008L370.021 367.613V333.228Z" fill="white"/>
<path d="M-62.0757 468.912L-35.0143 460.308L-7.96926 468.912L16.3828 461.162L-10.6787 452.574L16.3828 443.969L-7.95285 436.235L-35.0143 444.839L-62.0757 436.235L-86.4277 443.969L-59.3663 452.574L-86.4277 461.162L-62.0757 468.912Z" fill="white"/>
<path d="M19.9141 479.488V494.431L43.4451 486.959L19.9141 479.488Z" fill="white"/>
<path d="M18.2722 460.046V445.103L-5.25879 452.574L18.2722 460.046Z" fill="white"/>
<path d="M18.271 462.295L-7.13192 470.357V504.743L-34.1934 513.347V546.008L-7.13192 537.404V571.789L18.271 563.726V529.341L45.3325 520.736V488.076L18.271 496.68V462.295Z" fill="white"/>
<path d="M-35.0132 597.848L-7.95178 589.244L19.0932 597.848L43.4453 590.098L16.3838 581.51L43.4453 572.922L19.0932 565.188L-7.95178 573.776L-35.0132 565.188L-59.3652 572.922L-32.3038 581.51L-59.3652 590.098L-35.0132 597.848Z" fill="white"/>
<path d="M45.3337 588.981V574.039L21.8027 581.51L45.3337 588.981Z" fill="white"/>
<path d="M73.1997 511.886L100.245 503.281L127.306 511.886L151.658 504.151L124.597 495.547L151.658 486.959L127.306 479.225L100.261 487.813L73.1997 479.225L48.8477 486.959L75.9091 495.547L48.8477 504.151L73.1997 511.886Z" fill="white"/>
<path d="M155.188 522.46V537.403L178.719 529.932L155.188 522.46Z" fill="white"/>
<path d="M75.9082 547.125L100.26 554.859L124.596 547.125L100.26 539.39L75.9082 547.125Z" fill="white"/>
<path d="M126.501 614.778V582.626L101.082 590.706V606.699L126.501 614.778Z" fill="white"/>
<path d="M45.3337 522.46L45.3173 537.403L21.8027 529.932L45.3337 522.46Z" fill="white"/>
<path d="M74.0205 614.778V582.626L99.4398 590.706V606.699L74.0205 614.778Z" fill="white"/>
<path d="M101.082 537.929L126.485 546.008V513.347L101.082 505.268V537.929Z" fill="white"/>
<path d="M153.546 503.018V488.075L130.031 495.547L153.546 503.018Z" fill="white"/>
<path d="M99.4235 537.929L74.0205 546.008V513.347L99.4235 505.268V537.929Z" fill="white"/>
<path d="M46.959 503.018V488.075L70.49 495.547L46.959 503.018Z" fill="white"/>
<path d="M153.546 505.268L128.127 513.347V547.732L101.082 556.32V588.981L128.143 580.393V614.778L153.546 606.699V572.314L180.608 563.726V531.049L153.546 539.653V505.268Z" fill="white"/>
<path d="M46.9591 505.268L72.3785 513.347V547.732L99.4399 556.32V588.981L72.3785 580.393V614.778L46.9591 606.699V572.314L19.9141 563.726V531.049L46.9591 539.653V505.268Z" fill="white"/>
<path d="M181.412 425.923L208.473 417.318L235.535 425.923L259.887 418.189L232.825 409.584L259.87 400.996L235.535 393.262L208.473 401.85L181.428 393.262L157.076 400.996L184.138 409.584L157.076 418.189L181.412 425.923Z" fill="white"/>
<path d="M263.418 436.498V451.441L286.933 443.969L263.418 436.498Z" fill="white"/>
<path d="M184.138 461.162L208.473 468.896L232.825 461.162L208.473 453.427L184.138 461.162Z" fill="white"/>
<path d="M234.714 528.815V496.664L209.295 504.743L209.311 520.736L234.714 528.815Z" fill="white"/>
<path d="M153.546 436.498V451.441L130.015 443.969L153.546 436.498Z" fill="white"/>
<path d="M182.25 528.815L182.233 496.664L207.669 504.743L207.653 520.736L182.25 528.815Z" fill="white"/>
<path d="M209.295 451.966L234.714 460.045V427.384L209.295 419.305V451.966Z" fill="white"/>
<path d="M261.775 417.072V402.113L238.244 409.584L261.775 417.072Z" fill="white"/>
<path d="M207.653 451.966L182.233 460.045V427.384L207.653 419.305V451.966Z" fill="white"/>
<path d="M155.188 417.072V402.113L178.703 409.584L155.188 417.072Z" fill="white"/>
<path d="M261.776 419.305L236.356 427.384V461.77L209.295 470.358V503.019L236.356 494.43V528.816L261.776 520.736V486.351L288.837 477.763V445.102L261.776 453.691V419.305Z" fill="white"/>
<path d="M155.188 419.305L180.608 427.384V461.77L207.669 470.358L207.653 503.019L180.608 494.43V528.816L155.188 520.736V486.351L128.127 477.763V445.102L155.188 453.691V419.305Z" fill="white"/>
<path d="M100.261 382.95L73.1998 374.345L46.1383 382.95L21.8027 375.216L48.8642 366.611L21.8027 358.023L46.1383 350.272L73.1998 358.877L100.261 350.272L124.597 358.023L97.5518 366.611L124.597 375.216L100.261 382.95Z" fill="white"/>
<path d="M18.2722 393.524L18.2558 408.467L-5.25879 400.996L18.2722 393.524Z" fill="white"/>
<path d="M97.5517 418.189L73.1997 425.923L48.8477 418.189L73.1997 410.454L97.5517 418.189Z" fill="white"/>
<path d="M46.959 485.826V453.69L72.3784 461.769V477.763L46.959 485.826Z" fill="white"/>
<path d="M128.127 393.524V408.467L151.658 400.996L128.127 393.524Z" fill="white"/>
<path d="M99.4398 485.826V453.69L74.0205 461.769V477.763L99.4398 485.826Z" fill="white"/>
<path d="M72.3784 408.993L46.959 417.056V384.411L72.3784 376.332V408.993Z" fill="white"/>
<path d="M19.8975 374.083V359.14L43.4284 366.611L19.8975 374.083Z" fill="white"/>
<path d="M74.0205 408.993L99.4398 417.056V384.411L74.0205 376.332V408.993Z" fill="white"/>
<path d="M126.501 374.083V359.14L102.97 366.611L126.501 374.083Z" fill="white"/>
<path d="M19.8976 376.332L45.3169 384.411V418.796L72.3784 427.384V460.045L45.3169 451.441V485.826L19.8976 477.763V443.378L-7.14746 434.774V402.113L19.8976 410.717V376.332Z" fill="white"/>
<path d="M126.485 376.332L101.066 384.411V418.796L74.0205 427.384V460.045L101.082 451.441V485.826L126.485 477.763V443.378L153.546 434.774V402.113L126.485 410.717V376.332Z" fill="white"/>
<path d="M-7.14746 350.535V365.494L16.3835 358.007L-7.14746 350.535Z" fill="white"/>
<path d="M-8.78952 333.359L-34.2089 341.421V375.807L-61.2539 384.411V417.072L-34.1925 408.468V442.853L-8.78952 434.774V400.405L18.2719 391.8V359.14L-8.78952 367.728V333.359Z" fill="white"/>
<path d="M397.92 597.799L370.875 589.195L343.814 597.799L319.462 590.065L346.523 581.46L319.462 572.872L343.814 565.138L370.859 573.726L397.92 565.138L422.272 572.872L395.211 581.46L422.272 590.065L397.92 597.799Z" fill="white"/>
<path d="M317.573 588.932V573.989L341.104 581.461L317.573 588.932Z" fill="white"/>
<path d="M208.523 554.81L235.585 546.221L262.646 554.81L286.982 547.075L259.92 538.487L286.982 529.883L262.646 522.149L235.585 530.753L208.523 522.149L184.188 529.883L211.249 538.487L184.188 547.075L208.523 554.81Z" fill="white"/>
<path d="M290.512 565.401L290.528 580.344L314.043 572.872L290.512 565.401Z" fill="white"/>
<path d="M211.249 590.065L235.585 597.799L259.937 590.065L235.585 582.314L211.249 590.065Z" fill="white"/>
<path d="M180.657 565.401V580.344L157.126 572.872L180.657 565.401Z" fill="white"/>
<path d="M236.405 580.853L261.825 588.932V556.271L236.405 548.208V580.853Z" fill="white"/>
<path d="M288.886 545.959V531.016L265.355 538.487L288.886 545.959Z" fill="white"/>
<path d="M234.763 580.853L209.344 588.932V556.271L234.763 548.208V580.853Z" fill="white"/>
<path d="M182.299 545.959V531.016L205.813 538.487L182.299 545.959Z" fill="white"/>
<path d="M288.886 548.208L263.467 556.271V590.656L236.405 599.261V631.922L263.467 623.317V657.702L288.886 649.623V615.254L315.931 606.65V573.989L288.886 582.594V548.208Z" fill="white"/>
<path d="M182.299 548.208L207.702 556.271V590.656L234.763 599.261V631.922L207.702 623.317V657.702L182.299 649.623V615.254L155.237 606.65V573.989L182.299 582.594V548.208Z" fill="white"/>
<path d="M316.752 468.863L343.797 460.258L370.859 468.863L395.211 461.112L368.149 452.524L395.194 443.92L370.859 436.186L343.797 444.79L316.752 436.186L292.4 443.92L319.462 452.524L292.4 461.112L316.752 468.863Z" fill="white"/>
<path d="M319.462 504.102L343.798 511.837L368.15 504.102L343.798 496.368L319.462 504.102Z" fill="white"/>
<path d="M370.037 571.739V539.604L344.618 547.683L344.635 563.677L370.037 571.739Z" fill="white"/>
<path d="M288.87 479.438V494.381L265.355 486.91L288.87 479.438Z" fill="white"/>
<path d="M317.573 571.739V539.604L342.993 547.683L342.976 563.677L317.573 571.739Z" fill="white"/>
<path d="M344.618 494.907L370.037 502.969V470.325L344.618 462.246V494.907Z" fill="white"/>
<path d="M397.099 459.996V445.053L373.568 452.525L397.099 459.996Z" fill="white"/>
<path d="M342.976 494.907L317.573 502.969V470.325L342.976 462.246V494.907Z" fill="white"/>
<path d="M290.512 459.996V445.053L314.026 452.525L290.512 459.996Z" fill="white"/>
<path d="M397.099 462.246L371.68 470.325V504.693L344.618 513.298V545.959L371.68 537.354V571.739L397.099 563.677V529.292L424.16 520.687V488.026L397.099 496.631V462.246Z" fill="white"/>
<path d="M290.512 462.246L315.931 470.325V504.693L342.992 513.298L342.976 545.959L315.931 537.354V571.739L290.512 563.677V529.292L263.45 520.687V488.026L290.512 496.631V462.246Z" fill="white"/>
</g>
<g opacity="0.6" clip-path="url(#clip1_1299_31429)">
<rect width="384" height="162" transform="translate(0 591)" fill="#F4B9A4"/>
<path d="M-35.0132 597.848L-7.95178 589.244L19.0932 597.848L43.4453 590.098L16.3838 581.51L43.4453 572.922L19.0932 565.188L-7.95178 573.776L-35.0132 565.188L-59.3652 572.922L-32.3038 581.51L-59.3652 590.098L-35.0132 597.848Z" fill="#F7F9FF"/>
<path d="M46.9756 608.423V623.366L70.5065 615.895L46.9756 608.423Z" fill="#F7F9FF"/>
<path d="M-32.3047 633.087L-7.9527 640.822L16.3829 633.087L-7.9527 625.353L-32.3047 633.087Z" fill="#F7F9FF"/>
<path d="M18.2721 700.724V668.589L-7.13086 676.668V692.662L18.2721 700.724Z" fill="#F7F9FF"/>
<path d="M-7.13086 623.892L18.2721 631.954V599.31L-7.13086 591.231V623.892Z" fill="#F7F9FF"/>
<path d="M45.3335 591.231L19.9142 599.31V633.679L-7.13086 642.283V674.944L19.9142 666.356V700.725L45.3335 692.662V658.277L72.395 649.672V617.011L45.3335 625.616V591.231Z" fill="#F7F9FF"/>
<path d="M126.501 614.778V582.626L101.082 590.706V606.699L126.501 614.778Z" fill="#F7F9FF"/>
<path d="M74.0205 614.778V582.626L99.4398 590.706V606.699L74.0205 614.778Z" fill="#F7F9FF"/>
<path d="M153.546 505.268L128.127 513.347V547.732L101.082 556.32V588.981L128.143 580.393V614.778L153.546 606.699V572.314L180.608 563.726V531.049L153.546 539.653V505.268Z" fill="#F7F9FF"/>
<path d="M46.9591 505.268L72.3785 513.347V547.732L99.4399 556.32V588.981L72.3785 580.393V614.778L46.9591 606.699V572.314L19.9141 563.726V531.049L46.9591 539.653V505.268Z" fill="#F7F9FF"/>
<path d="M46.1538 726.784L19.0923 718.18L-7.9527 726.784L-32.3047 719.05L-5.24325 710.446L-32.3047 701.858L-7.9527 694.124L19.0923 702.712L46.1538 694.124L70.5058 701.858L43.4444 710.446L70.5058 719.05L46.1538 726.784Z" fill="#F7F9FF"/>
<path d="M74.0205 737.359L74.0369 752.302L97.5515 744.831L74.0205 737.359Z" fill="#F7F9FF"/>
<path d="M18.2721 752.827L-7.13086 760.906V728.246L18.2721 720.167V752.827Z" fill="#F7F9FF"/>
<path d="M19.9141 752.827L45.3334 760.906V728.246L19.9141 720.167V752.827Z" fill="#F7F9FF"/>
<path d="M72.3942 717.934V702.974L48.8633 710.446L72.3942 717.934Z" fill="#F7F9FF"/>
<path d="M-34.1925 720.167L-8.77311 728.246V762.631L18.2719 771.219V803.88L-8.77311 795.292V829.677L-34.1925 821.598V787.213L-61.2539 778.625V745.964L-34.1925 754.552V720.167Z" fill="#F7F9FF"/>
<path d="M72.3949 720.167L46.9755 728.246V762.631L19.9141 771.219V803.88L46.9755 795.292V829.677L72.3949 821.598V787.213L99.4399 778.625V745.964L72.3949 754.552V720.167Z" fill="#F7F9FF"/>
<path d="M127.305 769.757L154.367 761.169L181.428 769.757L205.764 762.023L178.702 753.435L205.764 744.831L181.428 737.096L154.367 745.701L127.322 737.096L102.97 744.831L130.031 753.435L102.97 762.023L127.305 769.757Z" fill="#F7F9FF"/>
<path d="M207.669 760.907V745.964L184.138 753.435L207.669 760.907Z" fill="#F7F9FF"/>
<path d="M101.082 760.907V745.964L124.597 753.435L101.082 760.907Z" fill="#F7F9FF"/>
<path d="M154.367 640.821L127.322 632.217L100.26 640.821L75.9082 633.087L102.97 624.499L75.9082 615.895L100.26 608.16L127.322 616.765L154.367 608.16L178.719 615.895L151.657 624.499L178.719 633.087L154.367 640.821Z" fill="#F7F9FF"/>
<path d="M72.3787 651.396V666.356L48.8477 658.868L72.3787 651.396Z" fill="#F7F9FF"/>
<path d="M151.657 676.061L127.305 683.795L102.97 676.061L127.305 668.326L151.657 676.061Z" fill="#F7F9FF"/>
<path d="M101.082 743.714L101.065 711.579L126.501 719.641L126.485 735.635L101.082 743.714Z" fill="#F7F9FF"/>
<path d="M182.25 651.396V666.356L205.765 658.868L182.25 651.396Z" fill="#F7F9FF"/>
<path d="M153.546 743.714V711.579L128.127 719.641L128.143 735.635L153.546 743.714Z" fill="#F7F9FF"/>
<path d="M126.485 666.865L101.082 674.944V642.283L126.485 634.204V666.865Z" fill="#F7F9FF"/>
<path d="M74.0205 631.971V617.011L97.5515 624.499L74.0205 631.971Z" fill="#F7F9FF"/>
<path d="M128.144 666.865L153.547 674.944V642.283L128.144 634.204V666.865Z" fill="#F7F9FF"/>
<path d="M180.607 631.971V617.011L157.093 624.499L180.607 631.971Z" fill="#F7F9FF"/>
<path d="M74.0204 634.204L99.4398 642.283V676.668L126.501 685.256L126.485 717.934L99.4398 709.329V743.714L74.0204 735.635V701.25L46.959 692.662V660.001L74.0204 668.589V634.204Z" fill="#F7F9FF"/>
<path d="M180.608 634.204L155.188 642.283V676.668L128.127 685.256V717.934L155.188 709.329V743.714L180.608 735.635V701.25L207.669 692.662V660.001L180.608 668.589V634.204Z" fill="#F7F9FF"/>
<path d="M370.859 726.735L397.921 718.131L424.982 726.735L449.318 719.001L422.272 710.396L449.318 701.808L424.982 694.074L397.921 702.662L370.859 694.074L346.523 701.808L373.568 710.396L346.523 719.001L370.859 726.735Z" fill="#F7F9FF"/>
<path d="M342.993 737.31V752.253L319.462 744.781L342.993 737.31Z" fill="#F7F9FF"/>
<path d="M397.099 752.779L371.68 760.858V728.197L397.099 720.118V752.779Z" fill="#F7F9FF"/>
<path d="M344.635 717.884V702.925L368.149 710.396L344.635 717.884Z" fill="#F7F9FF"/>
<path d="M344.635 720.118L370.054 728.197V762.582L397.099 771.17V803.831L370.038 795.243V829.628L344.635 821.549V787.164L317.573 778.576V745.915L344.635 754.503V720.118Z" fill="#F7F9FF"/>
<path d="M397.92 597.799L370.875 589.195L343.814 597.799L319.462 590.065L346.523 581.46L319.462 572.872L343.814 565.138L370.859 573.726L397.92 565.138L422.272 572.872L395.211 581.46L422.272 590.065L397.92 597.799Z" fill="#F7F9FF"/>
<path d="M315.931 608.374V623.317L292.416 615.845L315.931 608.374Z" fill="#F7F9FF"/>
<path d="M395.211 633.038L370.859 640.773L346.523 633.038L370.859 625.304L395.211 633.038Z" fill="#F7F9FF"/>
<path d="M344.635 700.691V668.54L370.038 676.619V692.612L344.635 700.691Z" fill="#F7F9FF"/>
<path d="M397.099 700.691V668.54L371.68 676.619V692.612L397.099 700.691Z" fill="#F7F9FF"/>
<path d="M370.038 623.843L344.635 631.922V599.261L370.038 591.182V623.843Z" fill="#F7F9FF"/>
<path d="M371.696 623.843L397.099 631.922V599.261L371.696 591.182V623.843Z" fill="#F7F9FF"/>
<path d="M317.573 591.182L342.993 599.261V633.629L370.038 642.234V674.895L342.993 666.307V700.692L317.573 692.613V658.228L290.512 649.623V616.962L317.573 625.567V591.182Z" fill="#F7F9FF"/>
<path d="M424.16 591.182L398.741 599.261V633.629L371.68 642.234V674.895L398.741 666.307V700.692L424.16 692.613V658.228L451.206 649.623V616.962L424.16 625.567V591.182Z" fill="#F7F9FF"/>
<path d="M211.249 590.065L235.585 597.799L259.937 590.065L235.585 582.314L211.249 590.065Z" fill="#F7F9FF"/>
<path d="M261.825 657.702V625.567L236.405 633.646V649.623L261.825 657.702Z" fill="#F7F9FF"/>
<path d="M209.344 657.702V625.567L234.763 633.646V649.623L209.344 657.702Z" fill="#F7F9FF"/>
<path d="M288.886 548.208L263.467 556.271V590.656L236.405 599.261V631.922L263.467 623.317V657.702L288.886 649.623V615.254L315.931 606.65V573.989L288.886 582.594V548.208Z" fill="#F7F9FF"/>
<path d="M182.299 548.208L207.702 556.271V590.656L234.763 599.261V631.922L207.702 623.317V657.702L182.299 649.623V615.254L155.237 606.65V573.989L182.299 582.594V548.208Z" fill="#F7F9FF"/>
<path d="M235.585 683.745L262.646 675.157L289.707 683.745L314.043 676.011L286.982 667.423L314.043 658.819L289.707 651.084L262.646 659.689L235.585 651.084L211.249 658.819L238.294 667.423L211.249 676.011L235.585 683.745Z" fill="#F7F9FF"/>
<path d="M317.573 694.337L317.59 709.28L341.104 701.808L317.573 694.337Z" fill="#F7F9FF"/>
<path d="M238.294 719.001L262.646 726.735L286.998 719.001L262.646 711.267L238.294 719.001Z" fill="#F7F9FF"/>
<path d="M207.718 694.337V709.28L184.188 701.808L207.718 694.337Z" fill="#F7F9FF"/>
<path d="M263.467 709.805L288.886 717.868V685.223L263.467 677.144V709.805Z" fill="#F7F9FF"/>
<path d="M315.947 674.895V659.952L292.416 667.423L315.947 674.895Z" fill="#F7F9FF"/>
<path d="M261.825 709.805L236.405 717.868V685.223L261.825 677.144V709.805Z" fill="#F7F9FF"/>
<path d="M209.344 674.895V659.952L232.875 667.423L209.344 674.895Z" fill="#F7F9FF"/>
<path d="M315.948 677.144L290.528 685.223V719.592L263.467 728.196V760.857L290.528 752.253V786.638L315.948 778.559V744.19L342.993 735.586V702.925L315.948 711.529V677.144Z" fill="#F7F9FF"/>
<path d="M209.36 677.144L234.763 685.223V719.592L261.825 728.196V760.857L234.763 752.253V786.638L209.36 778.559V744.19L182.299 735.586V702.925L209.36 711.529V677.144Z" fill="#F7F9FF"/>
</g>
<defs>
<clipPath id="clip0_1299_31429">
<rect width="384" height="591" fill="white"/>
</clipPath>
<clipPath id="clip1_1299_31429">
<rect width="384" height="162" fill="white" transform="translate(0 591)"/>
</clipPath>
</defs>
</svg>
